<?xml version="1.0" encoding="UTF-8"?>
<svg id="Layer_2" data-name="Layer 2" xmlns="http://www.w3.org/2000/svg" viewBox="0 0 971.9 971.9">
  <defs>
    <style>
      .cls-1 {
        fill: #85ab81;
      }

      .cls-1, .cls-2 {
        stroke-width: 0px;
      }

      .cls-2 {
        fill: #fff;
      }
    </style>
  </defs>
  <g id="Layer_1-2" data-name="Layer 1">
    <path class="cls-1" d="M0,485.95c0,268.38,217.57,485.95,485.95,485.95s485.95-217.57,485.95-485.95S754.33,0,485.95,0,0,217.57,0,485.95Z"/>
    <path class="cls-2" d="M492.43,260.42l185.15,370.33c5.68,11.35,1.09,25.15-10.26,30.83-6.46,3.23-14.06,3.24-20.53.02l-164.74-81.64c-6.44-3.19-14-3.19-20.44,0l-164.74,81.64c-11.36,5.66-25.16,1.03-30.81-10.33-3.22-6.47-3.21-14.07.02-20.53l185.15-370.33c5.71-11.38,19.56-15.97,30.94-10.27,4.44,2.23,8.04,5.83,10.27,10.27h0Z"/>
  </g>
</svg>